<?xml version="1.0" encoding="UTF-8"?>
<svg version="1.1" xmlns="http://www.w3.org/2000/svg" width="123" height="121">
<path d="M0 0 C40.59 0 81.18 0 123 0 C123 39.93 123 79.86 123 121 C82.41 121 41.82 121 0 121 C0 81.07 0 41.14 0 0 Z " fill="#161B24" transform="translate(0,0)"/>
<path d="M0 0 C25.74 0 51.48 0 78 0 C74.16273545 1.91863227 71.2237924 2.69366758 67.046875 3.5078125 C66.38665344 3.63815887 65.72643188 3.76850525 65.04620361 3.90280151 C62.94849465 4.31565543 60.8493213 4.72043327 58.75 5.125 C57.3228123 5.40441538 55.89572763 5.68435755 54.46875 5.96484375 C50.98033904 6.64933382 47.49056937 7.32659251 44 8 C43.67 11.63 43.34 15.26 43 19 C35.33374031 18.34289203 28.01222657 17.08076135 20.5 15.4609375 C14.68233217 14.2428633 8.92428246 13.47898454 3 13 C4.4513453 19.4386955 7.37625925 24.57847907 10.6875 30.25 C11.87086272 32.30928072 13.05310925 34.36920318 14.234375 36.4296875 C14.85248047 37.50444336 15.47058594 38.57919922 16.10742188 39.68652344 C19.26856366 45.22096826 22.35127251 50.79854228 25.4375 56.375 C30.39871355 65.32261689 35.37512103 74.26142748 40.375 83.1875 C40.9512915 84.21738037 41.52758301 85.24726074 42.12133789 86.30834961 C44.69086855 90.89655875 47.26829688 95.47966827 49.875 100.046875 C50.30248535 100.79815674 50.7299707 101.54943848 51.17041016 102.32348633 C51.94760422 103.68743514 52.72827835 105.04940963 53.51318359 106.40893555 C56 110.77739095 56 110.77739095 56 113 C37.52 113 19.04 113 0 113 C0 75.71 0 38.42 0 0 Z " fill="#151B24" transform="translate(4,5)"/>
<path d="M0 0 C8.67272811 -0.55243564 16.69368963 1.14161946 25.125 3 C26.47636277 3.2899948 27.82792451 3.57906402 29.1796875 3.8671875 C32.45519069 4.56908104 35.72839205 5.28020796 39 6 C39.20638953 28.80127986 39.20638953 28.80127986 38 38 C38.59167969 37.855625 39.18335938 37.71125 39.79296875 37.5625 C40.97826172 37.2840625 40.97826172 37.2840625 42.1875 37 C42.96480469 36.814375 43.74210937 36.62875 44.54296875 36.4375 C47.07990225 35.98577257 49.42879903 35.92692857 52 36 C51.80083984 37.17755859 51.80083984 37.17755859 51.59765625 38.37890625 C50.66757357 43.91187987 49.75808113 49.44073841 49 55 C52.3 54.34 55.6 53.68 59 53 C58.37922374 59.47567652 57.33183542 65.71162243 55.9375 72.0625 C55.75123047 72.92810547 55.56496094 73.79371094 55.37304688 74.68554688 C54.91933733 76.79122451 54.46023996 78.89574007 54 81 C54.99 81 55.98 81 57 81 C57.27295898 80.13189697 57.54591797 79.26379395 57.82714844 78.36938477 C58.95230427 75.13702097 60.26688556 72.16444175 61.765625 69.08984375 C62.31968018 67.94821777 62.87373535 66.8065918 63.44458008 65.63037109 C64.04638123 64.39941138 64.64818801 63.16845441 65.25 61.9375 C65.86979015 60.66246911 66.4891683 59.38723788 67.1081543 58.11181641 C68.40356743 55.44366506 69.70077376 52.77639781 70.99951172 50.10986328 C73.96965828 44.0102248 76.92823373 37.90499931 79.88195801 31.7973938 C80.80079668 29.89917774 81.72207509 28.00215975 82.64355469 26.10522461 C83.20075195 24.95417236 83.75794922 23.80312012 84.33203125 22.6171875 C84.82421143 21.60253418 85.3163916 20.58788086 85.82348633 19.54248047 C87.07368579 16.96463848 87.07368579 16.96463848 88 14 C87.32453125 14.144375 86.6490625 14.28875 85.953125 14.4375 C84.61507812 14.7159375 84.61507812 14.7159375 83.25 15 C82.36828125 15.185625 81.4865625 15.37125 80.578125 15.5625 C78 16 78 16 74 16 C74.30921884 14.54096742 74.62248799 13.08279278 74.9375 11.625 C75.11152344 10.81289063 75.28554687 10.00078125 75.46484375 9.1640625 C76 7 76 7 77 5 C79.92026628 4.2167302 82.79265522 3.54324897 85.75 2.9375 C86.56210938 2.76412109 87.37421875 2.59074219 88.2109375 2.41210938 C89.78442311 2.07767962 91.35903078 1.74847739 92.93481445 1.42504883 C94.55205549 1.09219428 96.16552301 0.74099489 97.77734375 0.3828125 C100.16566262 -0.0285324 102.39119677 -0.09863885 104.8125 -0.0625 C105.99779297 -0.04896484 105.99779297 -0.04896484 107.20703125 -0.03515625 C108.09455078 -0.01775391 108.09455078 -0.01775391 109 0 C109.76487189 2.24405844 110.14826858 3.54557193 109.40185547 5.83325195 C109.06041504 6.46191162 108.71897461 7.09057129 108.3671875 7.73828125 C107.98022705 8.46329834 107.5932666 9.18831543 107.19458008 9.93530273 C106.75911865 10.71977783 106.32365723 11.50425293 105.875 12.3125 C105.42342529 13.14789307 104.97185059 13.98328613 104.5065918 14.84399414 C100.49579203 22.21899755 96.33553413 29.51173258 92.17797852 36.8046875 C87.7631761 44.57443142 83.51444011 52.42654721 79.3125 60.3125 C75.04531053 68.31701965 70.77297301 76.31635176 66.375 84.25 C65.80906128 85.27540894 65.80906128 85.27540894 65.23168945 86.3215332 C62.63722699 90.97776592 59.86079982 95.5029713 57 100 C53.57737283 99.40607877 53.15434518 99.21416889 50.984375 96.203125 C50.22563997 94.89339563 49.4821956 93.57474884 48.75 92.25 C48.32944336 91.51265625 47.90888672 90.7753125 47.47558594 90.015625 C45.96623772 87.35319875 44.48158529 84.67797438 43 82 C42.40574219 80.92943359 41.81148437 79.85886719 41.19921875 78.75585938 C38.16880662 73.29062528 35.14923497 67.81957199 32.14108276 62.34205627 C27.43744119 53.77730811 22.67504576 45.246455 17.89233398 36.72558594 C13.94088035 29.68475157 10.00972992 22.63306679 6.10595703 15.56567383 C5.73712402 14.89947021 5.36829102 14.2332666 4.98828125 13.546875 C4.64877441 12.93005859 4.30926758 12.31324219 3.95947266 11.67773438 C3.10976272 10.19193114 2.1755632 8.75515503 1.23046875 7.328125 C-0.18771166 4.64483761 -0.09755522 2.98673815 0 0 Z " fill="#8B72F9" transform="translate(7,18)"/>
<path d="M0 0 C-0.5523609 6.87304767 -1.98715667 12.99940729 -4.0625 19.5625 C-4.34416016 20.47580078 -4.62582031 21.38910156 -4.91601562 22.33007812 C-5.60351822 24.55572212 -6.29825282 26.77881482 -7 29 C-6.38584229 28.8570752 -5.77168457 28.71415039 -5.13891602 28.56689453 C-3.92739868 28.29014893 -3.92739868 28.29014893 -2.69140625 28.0078125 C-1.89162354 27.8236377 -1.09184082 27.63946289 -0.26782227 27.44970703 C2.19831083 26.96067515 4.49129252 26.8381479 7 27 C6.36353218 31.33184165 4.82058872 34.76910864 2.89453125 38.6875 C2.57836349 39.33509781 2.26219574 39.98269562 1.93644714 40.6499176 C0.90039561 42.7692362 -0.14355958 44.88455785 -1.1875 47 C-1.90622663 48.4670592 -2.62431869 49.93442944 -3.34179688 51.40209961 C-4.82000814 54.42518559 -6.30065327 57.44706171 -7.78271484 60.46826172 C-10.90697798 66.84480774 -13.99060665 73.24091505 -17.07266235 79.63793945 C-17.99206842 81.54603911 -18.91226777 83.45375401 -19.83276367 85.36132812 C-21.22220101 88.24071268 -22.61126301 91.12027762 -24 94 C-24.99 94 -25.98 94 -27 94 C-26.38277416 84.43299944 -24.1798659 75.30752043 -22 66 C-26.95 66.99 -26.95 66.99 -32 68 C-32.45510807 61.32508169 -30.7672426 55.40625443 -29 49 C-29.59167969 49.144375 -30.18335938 49.28875 -30.79296875 49.4375 C-31.58316406 49.623125 -32.37335937 49.80875 -33.1875 50 C-33.96480469 50.185625 -34.74210937 50.37125 -35.54296875 50.5625 C-38.08219346 51.0146354 -40.42666848 51.02998784 -43 51 C-42.8802934 46.64398849 -42.75597864 42.28813814 -42.62768555 37.93237305 C-42.58480139 36.45551988 -42.54310173 34.97863175 -42.50268555 33.50170898 C-42.26839059 24.97163714 -41.92830293 16.48913099 -41 8 C-36.62841703 6.44619919 -32.32633038 5.37535538 -27.7734375 4.4921875 C-27.10333649 4.36184113 -26.43323547 4.23149475 -25.74282837 4.09719849 C-24.33642068 3.82470431 -22.92962335 3.55421411 -21.52246094 3.28564453 C-19.37317609 2.87465123 -17.22562954 2.4553415 -15.078125 2.03515625 C-13.70582513 1.77033558 -12.33343232 1.50599594 -10.9609375 1.2421875 C-9.72134277 1.0035498 -8.48174805 0.76491211 -7.20458984 0.51904297 C-4 0 -4 0 0 0 Z " fill="#FDC722" transform="translate(88,5)"/>
<path d="M0 0 C40.59 0 81.18 0 123 0 C123 39.93 123 79.86 123 121 C82.41 121 41.82 121 0 121 C0 81.07 0 41.14 0 0 Z M4 5 C4 42.29 4 79.58 4 118 C23.70106339 117.96038804 23.70106339 117.96038804 43.40209961 117.90991211 C45.86051388 117.90699322 48.31892864 117.9044446 50.77734375 117.90234375 C52.0677356 117.89722778 53.35812744 117.89211182 54.68762207 117.88684082 C55.90566528 117.88671997 57.1237085 117.88659912 58.37866211 117.88647461 C59.97417152 117.88314369 59.97417152 117.88314369 61.60191345 117.87974548 C64 118 64 118 65 119 C83.15 119 101.3 119 120 119 C120 81.38 120 43.76 120 5 C81.72 5 43.44 5 4 5 Z " fill="#2D343C" transform="translate(0,0)"/>
<path d="M0 0 C-0.33 2.31 -0.66 4.62 -1 7 C-1.79277344 7.02578125 -2.58554688 7.0515625 -3.40234375 7.078125 C-16.08484873 7.69473298 -28.49718361 9.86450412 -41 12 C-40.67 10.35 -40.34 8.7 -40 7 C-34.94722783 5.99827536 -29.89351388 5.00150005 -24.83886719 4.00927734 C-23.11984984 3.67111531 -21.40109661 3.33160779 -19.68261719 2.99072266 C-17.21097093 2.5006795 -14.73841199 2.01549967 -12.265625 1.53125 C-11.49881409 1.37813354 -10.73200317 1.22501709 -9.94195557 1.06726074 C-6.53636264 0.40478442 -3.4853151 0 0 0 Z " fill="#F2D751" transform="translate(88,5)"/>
<path d="M0 0 C7.92 0 15.84 0 24 0 C24 0.33 24 0.66 24 1 C11.625 2.98 11.625 2.98 -1 5 C-0.67 3.35 -0.34 1.7 0 0 Z " fill="#FFE04A" transform="translate(48,12)"/>
<path d="M0 0 C0 0.66 0 1.32 0 2 C-2.34852528 3.17426264 -3.73774065 3.11508173 -6.3515625 3.09765625 C-7.20234375 3.09443359 -8.053125 3.09121094 -8.9296875 3.08789062 C-9.81914063 3.07951172 -10.70859375 3.07113281 -11.625 3.0625 C-12.5221875 3.05798828 -13.419375 3.05347656 -14.34375 3.04882812 C-16.56256648 3.03702591 -18.78125018 3.02056155 -21 3 C-21 2.67 -21 2.34 -21 2 C-18.62733173 1.46569684 -16.25293117 0.94737476 -13.875 0.4375 C-12.87726563 0.21030273 -12.87726563 0.21030273 -11.859375 -0.02148438 C-7.59513257 -0.92031979 -4.24075907 -0.9974371 0 0 Z " fill="#E3CC5A" transform="translate(84,7)"/>
<path d="M0 0 C1.32 0 2.64 0 4 0 C4 0.66 4 1.32 4 2 C6.31 2 8.62 2 11 2 C11 2.33 11 2.66 11 3 C7.04 3.66 3.08 4.32 -1 5 C-0.67 3.35 -0.34 1.7 0 0 Z " fill="#EFD347" transform="translate(48,12)"/>
</svg>
